<svg width="23" height="23" viewBox="0 0 23 23" fill="none" xmlns="http://www.w3.org/2000/svg">
<path d="M20.3205 22.0286L20.3439 21.9911L22.6769 17.2556L15.8619 12.1443L12.7263 14.4959C11.5438 14.4255 10.4281 13.924 9.59049 13.0864C8.75285 12.2487 8.25139 11.133 8.18104 9.9505L10.5326 6.81494L5.42145 0L0.725491 2.31361L0.685842 2.33308L0.648436 2.35654C0.449498 2.48001 0.28547 2.65233 0.171968 2.85712C0.0584664 3.0619 -0.000731851 3.29233 6.8291e-06 3.52647L6.77569e-06 4.74841C6.67276e-06 7.10282 0.463742 9.43418 1.36474 11.6094C2.26573 13.7846 3.58635 15.761 5.25117 17.4258C6.91599 19.0906 8.89242 20.4112 11.0676 21.3122C13.2428 22.2132 15.5742 22.677 17.9286 22.6769H19.1506C19.3847 22.6777 19.6151 22.6185 19.8199 22.505C20.0247 22.3915 20.197 22.2275 20.3205 22.0286ZM17.9286 20.9269C9.00769 20.9269 1.75001 13.6693 1.75001 4.74841V3.75966L4.89251 2.21167L8.34521 6.81527L6.423 9.37831V9.66996C6.42495 11.4156 7.11929 13.0893 8.35367 14.3237C9.58806 15.558 11.2617 16.2524 13.0074 16.2543H13.299L15.862 14.3321L20.4653 17.7844L18.9171 20.9269H17.9286Z" fill="white"/>
</svg>
